<mxfile host="65bd71144e">
    <diagram name="Page-1" id="J7yzhqRYAv0uMqAwVYR9">
        <mxGraphModel dx="3785" dy="2944" grid="1" gridSize="10" guides="1" tooltips="1" connect="1" arrows="1" fold="1" page="1" pageScale="1" pageWidth="827" pageHeight="1169" math="0" shadow="0">
            <root>
                <mxCell id="0"/>
                <mxCell id="1" parent="0"/>
                <mxCell id="LJVpLXXxZJYMMhg_Cfb--41" style="edgeStyle=orthogonalEdgeStyle;rounded=0;orthogonalLoop=1;jettySize=auto;html=1;entryX=0;entryY=0.5;entryDx=0;entryDy=0;endArrow=none;endFill=0;" parent="1" source="8pvRKTHRMorsvpUGDSfb-1" target="8pvRKTHRMorsvpUGDSfb-39" edge="1">
                    <mxGeometry relative="1" as="geometry">
                        <Array as="points">
                            <mxPoint x="-200" y="90"/>
                        </Array>
                    </mxGeometry>
                </mxCell>
                <mxCell id="LJVpLXXxZJYMMhg_Cfb--42" style="edgeStyle=orthogonalEdgeStyle;rounded=0;orthogonalLoop=1;jettySize=auto;html=1;entryX=0;entryY=0.5;entryDx=0;entryDy=0;endArrow=none;endFill=0;" parent="1" source="8pvRKTHRMorsvpUGDSfb-1" target="8pvRKTHRMorsvpUGDSfb-16" edge="1">
                    <mxGeometry relative="1" as="geometry">
                        <Array as="points">
                            <mxPoint x="-400" y="90"/>
                            <mxPoint x="-400" y="330"/>
                            <mxPoint x="-200" y="330"/>
                        </Array>
                    </mxGeometry>
                </mxCell>
                <mxCell id="5" style="edgeStyle=none;html=1;" edge="1" parent="1" source="8pvRKTHRMorsvpUGDSfb-1" target="3">
                    <mxGeometry relative="1" as="geometry"/>
                </mxCell>
                <mxCell id="8pvRKTHRMorsvpUGDSfb-1" value="Salarié" style="shape=umlActor;verticalLabelPosition=bottom;verticalAlign=top;html=1;" parent="1" vertex="1">
                    <mxGeometry x="-510" y="60" width="30" height="60" as="geometry"/>
                </mxCell>
                <mxCell id="LJVpLXXxZJYMMhg_Cfb--54" style="edgeStyle=orthogonalEdgeStyle;rounded=0;orthogonalLoop=1;jettySize=auto;html=1;" parent="1" source="8pvRKTHRMorsvpUGDSfb-4" edge="1">
                    <mxGeometry relative="1" as="geometry">
                        <mxPoint x="-495" y="160" as="targetPoint"/>
                    </mxGeometry>
                </mxCell>
                <mxCell id="LJVpLXXxZJYMMhg_Cfb--62" style="edgeStyle=orthogonalEdgeStyle;rounded=0;orthogonalLoop=1;jettySize=auto;html=1;entryX=0;entryY=0.5;entryDx=0;entryDy=0;endArrow=none;endFill=0;" parent="1" source="8pvRKTHRMorsvpUGDSfb-4" target="8pvRKTHRMorsvpUGDSfb-43" edge="1">
                    <mxGeometry relative="1" as="geometry">
                        <Array as="points">
                            <mxPoint x="-400" y="855"/>
                            <mxPoint x="-400" y="735"/>
                        </Array>
                    </mxGeometry>
                </mxCell>
                <mxCell id="LJVpLXXxZJYMMhg_Cfb--63" style="edgeStyle=orthogonalEdgeStyle;rounded=0;orthogonalLoop=1;jettySize=auto;html=1;entryX=0;entryY=0.5;entryDx=0;entryDy=0;endArrow=none;endFill=0;" parent="1" source="8pvRKTHRMorsvpUGDSfb-4" target="8pvRKTHRMorsvpUGDSfb-38" edge="1">
                    <mxGeometry relative="1" as="geometry">
                        <Array as="points">
                            <mxPoint x="-400" y="855"/>
                            <mxPoint x="-400" y="620"/>
                            <mxPoint x="-200" y="620"/>
                        </Array>
                    </mxGeometry>
                </mxCell>
                <mxCell id="PXRyv2mjXlSzl0FKW3IO-3" style="edgeStyle=orthogonalEdgeStyle;rounded=0;orthogonalLoop=1;jettySize=auto;html=1;entryX=0;entryY=0.5;entryDx=0;entryDy=0;endArrow=none;endFill=0;" parent="1" source="8pvRKTHRMorsvpUGDSfb-4" target="PXRyv2mjXlSzl0FKW3IO-1" edge="1">
                    <mxGeometry relative="1" as="geometry"/>
                </mxCell>
                <mxCell id="PXRyv2mjXlSzl0FKW3IO-4" style="edgeStyle=orthogonalEdgeStyle;rounded=0;orthogonalLoop=1;jettySize=auto;html=1;entryX=0;entryY=0.5;entryDx=0;entryDy=0;endArrow=none;endFill=0;" parent="1" source="8pvRKTHRMorsvpUGDSfb-4" target="PXRyv2mjXlSzl0FKW3IO-2" edge="1">
                    <mxGeometry relative="1" as="geometry">
                        <Array as="points">
                            <mxPoint x="-400" y="855"/>
                            <mxPoint x="-400" y="965"/>
                        </Array>
                    </mxGeometry>
                </mxCell>
                <mxCell id="8pvRKTHRMorsvpUGDSfb-4" value="Manager" style="shape=umlActor;verticalLabelPosition=bottom;verticalAlign=top;html=1;" parent="1" vertex="1">
                    <mxGeometry x="-510" y="825" width="30" height="60" as="geometry"/>
                </mxCell>
                <mxCell id="8pvRKTHRMorsvpUGDSfb-12" value="Mon Application" style="shape=umlFrame;whiteSpace=wrap;html=1;pointerEvents=0;width=190;height=30;strokeColor=#000099;shadow=0;textShadow=0;movable=1;resizable=1;rotatable=1;deletable=1;editable=1;connectable=1;" parent="1" vertex="1">
                    <mxGeometry x="-330" y="-330" width="1060" height="2010" as="geometry"/>
                </mxCell>
                <mxCell id="8pvRKTHRMorsvpUGDSfb-13" value="Ajouter une absence de groupe" style="ellipse;whiteSpace=wrap;html=1;" parent="1" vertex="1">
                    <mxGeometry x="-36" y="1090" width="120" height="80" as="geometry"/>
                </mxCell>
                <mxCell id="8pvRKTHRMorsvpUGDSfb-16" value="Demander une absence" style="ellipse;whiteSpace=wrap;html=1;" parent="1" vertex="1">
                    <mxGeometry x="-200" y="300" width="120" height="80" as="geometry"/>
                </mxCell>
                <mxCell id="8pvRKTHRMorsvpUGDSfb-22" style="edgeStyle=orthogonalEdgeStyle;rounded=0;orthogonalLoop=1;jettySize=auto;html=1;" parent="1" source="8pvRKTHRMorsvpUGDSfb-17" target="8pvRKTHRMorsvpUGDSfb-13" edge="1">
                    <mxGeometry relative="1" as="geometry"/>
                </mxCell>
                <mxCell id="8pvRKTHRMorsvpUGDSfb-17" value="Ajouter un jour férié" style="ellipse;whiteSpace=wrap;html=1;" parent="1" vertex="1">
                    <mxGeometry x="294" y="1140" width="120" height="80" as="geometry"/>
                </mxCell>
                <mxCell id="8pvRKTHRMorsvpUGDSfb-23" style="edgeStyle=orthogonalEdgeStyle;rounded=0;orthogonalLoop=1;jettySize=auto;html=1;" parent="1" source="8pvRKTHRMorsvpUGDSfb-18" target="8pvRKTHRMorsvpUGDSfb-13" edge="1">
                    <mxGeometry relative="1" as="geometry"/>
                </mxCell>
                <mxCell id="8pvRKTHRMorsvpUGDSfb-18" value="Ajouter une RTT employeur" style="ellipse;whiteSpace=wrap;html=1;" parent="1" vertex="1">
                    <mxGeometry x="294" y="1050" width="120" height="80" as="geometry"/>
                </mxCell>
                <mxCell id="8pvRKTHRMorsvpUGDSfb-33" style="edgeStyle=orthogonalEdgeStyle;rounded=0;orthogonalLoop=1;jettySize=auto;html=1;entryX=0.5;entryY=0;entryDx=0;entryDy=0;" parent="1" source="8pvRKTHRMorsvpUGDSfb-24" target="8pvRKTHRMorsvpUGDSfb-16" edge="1">
                    <mxGeometry relative="1" as="geometry"/>
                </mxCell>
                <mxCell id="8pvRKTHRMorsvpUGDSfb-24" value="Demander un congé payé" style="ellipse;whiteSpace=wrap;html=1;" parent="1" vertex="1">
                    <mxGeometry x="120" y="240" width="120" height="80" as="geometry"/>
                </mxCell>
                <mxCell id="8pvRKTHRMorsvpUGDSfb-34" style="edgeStyle=orthogonalEdgeStyle;rounded=0;orthogonalLoop=1;jettySize=auto;html=1;" parent="1" source="8pvRKTHRMorsvpUGDSfb-25" target="8pvRKTHRMorsvpUGDSfb-16" edge="1">
                    <mxGeometry relative="1" as="geometry"/>
                </mxCell>
                <mxCell id="8pvRKTHRMorsvpUGDSfb-25" value="Demander une RTT employé" style="ellipse;whiteSpace=wrap;html=1;" parent="1" vertex="1">
                    <mxGeometry y="300" width="120" height="80" as="geometry"/>
                </mxCell>
                <mxCell id="8pvRKTHRMorsvpUGDSfb-35" style="edgeStyle=orthogonalEdgeStyle;rounded=0;orthogonalLoop=1;jettySize=auto;html=1;entryX=0.5;entryY=1;entryDx=0;entryDy=0;" parent="1" source="8pvRKTHRMorsvpUGDSfb-26" target="8pvRKTHRMorsvpUGDSfb-16" edge="1">
                    <mxGeometry relative="1" as="geometry"/>
                </mxCell>
                <mxCell id="8pvRKTHRMorsvpUGDSfb-26" value="Demander un congé sans solde" style="ellipse;whiteSpace=wrap;html=1;" parent="1" vertex="1">
                    <mxGeometry x="120" y="360" width="120" height="80" as="geometry"/>
                </mxCell>
                <mxCell id="8pvRKTHRMorsvpUGDSfb-38" value="Traiter une absence :&lt;div&gt;Valider / Rejeter&lt;/div&gt;" style="ellipse;whiteSpace=wrap;html=1;" parent="1" vertex="1">
                    <mxGeometry x="-200" y="520" width="120" height="80" as="geometry"/>
                </mxCell>
                <mxCell id="8pvRKTHRMorsvpUGDSfb-39" value="Visualiser les absences" style="ellipse;whiteSpace=wrap;html=1;" parent="1" vertex="1">
                    <mxGeometry x="-200" y="60" width="120" height="80" as="geometry"/>
                </mxCell>
                <mxCell id="8pvRKTHRMorsvpUGDSfb-43" value="Visualiser la liste des collaborateurs présents et absents" style="ellipse;whiteSpace=wrap;html=1;" parent="1" vertex="1">
                    <mxGeometry x="-200" y="695" width="150" height="80" as="geometry"/>
                </mxCell>
                <mxCell id="LJVpLXXxZJYMMhg_Cfb--36" style="edgeStyle=orthogonalEdgeStyle;rounded=0;orthogonalLoop=1;jettySize=auto;html=1;dashed=1;endArrow=openThin;endFill=0;" parent="1" source="LJVpLXXxZJYMMhg_Cfb--3" target="8pvRKTHRMorsvpUGDSfb-39" edge="1">
                    <mxGeometry relative="1" as="geometry">
                        <Array as="points">
                            <mxPoint x="-140" y="-140"/>
                        </Array>
                    </mxGeometry>
                </mxCell>
                <mxCell id="LJVpLXXxZJYMMhg_Cfb--38" value="&amp;lt;&amp;lt;extend&amp;gt;&amp;gt;" style="edgeLabel;html=1;align=center;verticalAlign=middle;resizable=0;points=[];" parent="LJVpLXXxZJYMMhg_Cfb--36" vertex="1" connectable="0">
                    <mxGeometry x="0.0878" y="-1" relative="1" as="geometry">
                        <mxPoint as="offset"/>
                    </mxGeometry>
                </mxCell>
                <mxCell id="LJVpLXXxZJYMMhg_Cfb--3" value="Modifier une absence" style="ellipse;whiteSpace=wrap;html=1;" parent="1" vertex="1">
                    <mxGeometry x="40" y="-180" width="120" height="80" as="geometry"/>
                </mxCell>
                <mxCell id="LJVpLXXxZJYMMhg_Cfb--22" style="edgeStyle=orthogonalEdgeStyle;rounded=0;orthogonalLoop=1;jettySize=auto;html=1;entryX=0.5;entryY=0;entryDx=0;entryDy=0;" parent="1" source="LJVpLXXxZJYMMhg_Cfb--9" target="LJVpLXXxZJYMMhg_Cfb--3" edge="1">
                    <mxGeometry relative="1" as="geometry"/>
                </mxCell>
                <mxCell id="LJVpLXXxZJYMMhg_Cfb--9" value="Modifier un congé payé&amp;nbsp;" style="ellipse;whiteSpace=wrap;html=1;" parent="1" vertex="1">
                    <mxGeometry x="336" y="-240" width="120" height="80" as="geometry"/>
                </mxCell>
                <mxCell id="LJVpLXXxZJYMMhg_Cfb--23" style="edgeStyle=orthogonalEdgeStyle;rounded=0;orthogonalLoop=1;jettySize=auto;html=1;entryX=0.5;entryY=1;entryDx=0;entryDy=0;" parent="1" source="LJVpLXXxZJYMMhg_Cfb--10" target="LJVpLXXxZJYMMhg_Cfb--3" edge="1">
                    <mxGeometry relative="1" as="geometry"/>
                </mxCell>
                <mxCell id="LJVpLXXxZJYMMhg_Cfb--10" value="Modifier un congé sans solde" style="ellipse;whiteSpace=wrap;html=1;" parent="1" vertex="1">
                    <mxGeometry x="336" y="-120" width="120" height="80" as="geometry"/>
                </mxCell>
                <mxCell id="LJVpLXXxZJYMMhg_Cfb--21" style="edgeStyle=orthogonalEdgeStyle;rounded=0;orthogonalLoop=1;jettySize=auto;html=1;entryX=1;entryY=0.5;entryDx=0;entryDy=0;" parent="1" source="LJVpLXXxZJYMMhg_Cfb--11" target="LJVpLXXxZJYMMhg_Cfb--3" edge="1">
                    <mxGeometry relative="1" as="geometry"/>
                </mxCell>
                <mxCell id="LJVpLXXxZJYMMhg_Cfb--11" value="Modifier une RTT employé" style="ellipse;whiteSpace=wrap;html=1;" parent="1" vertex="1">
                    <mxGeometry x="216" y="-180" width="120" height="80" as="geometry"/>
                </mxCell>
                <mxCell id="LJVpLXXxZJYMMhg_Cfb--15" style="edgeStyle=orthogonalEdgeStyle;rounded=0;orthogonalLoop=1;jettySize=auto;html=1;entryX=0.5;entryY=0;entryDx=0;entryDy=0;" parent="1" source="LJVpLXXxZJYMMhg_Cfb--12" target="8pvRKTHRMorsvpUGDSfb-38" edge="1">
                    <mxGeometry relative="1" as="geometry"/>
                </mxCell>
                <mxCell id="LJVpLXXxZJYMMhg_Cfb--12" value="Traiter un congé payé&amp;nbsp;" style="ellipse;whiteSpace=wrap;html=1;" parent="1" vertex="1">
                    <mxGeometry x="20" y="460" width="120" height="80" as="geometry"/>
                </mxCell>
                <mxCell id="LJVpLXXxZJYMMhg_Cfb--17" style="edgeStyle=orthogonalEdgeStyle;rounded=0;orthogonalLoop=1;jettySize=auto;html=1;entryX=0.5;entryY=1;entryDx=0;entryDy=0;" parent="1" source="LJVpLXXxZJYMMhg_Cfb--13" target="8pvRKTHRMorsvpUGDSfb-38" edge="1">
                    <mxGeometry relative="1" as="geometry"/>
                </mxCell>
                <mxCell id="LJVpLXXxZJYMMhg_Cfb--13" value="Traiter un congé&amp;nbsp;&lt;div&gt;sans solde&lt;/div&gt;" style="ellipse;whiteSpace=wrap;html=1;" parent="1" vertex="1">
                    <mxGeometry x="20" y="580" width="120" height="80" as="geometry"/>
                </mxCell>
                <mxCell id="LJVpLXXxZJYMMhg_Cfb--16" style="edgeStyle=orthogonalEdgeStyle;rounded=0;orthogonalLoop=1;jettySize=auto;html=1;entryX=1;entryY=0.5;entryDx=0;entryDy=0;" parent="1" source="LJVpLXXxZJYMMhg_Cfb--14" target="8pvRKTHRMorsvpUGDSfb-38" edge="1">
                    <mxGeometry relative="1" as="geometry"/>
                </mxCell>
                <mxCell id="LJVpLXXxZJYMMhg_Cfb--14" value="Traiter une RTT employé" style="ellipse;whiteSpace=wrap;html=1;" parent="1" vertex="1">
                    <mxGeometry x="140" y="520" width="120" height="80" as="geometry"/>
                </mxCell>
                <mxCell id="LJVpLXXxZJYMMhg_Cfb--29" value="Supprimer une absence" style="ellipse;whiteSpace=wrap;html=1;" parent="1" vertex="1">
                    <mxGeometry x="40" y="60" width="120" height="80" as="geometry"/>
                </mxCell>
                <mxCell id="LJVpLXXxZJYMMhg_Cfb--59" style="edgeStyle=orthogonalEdgeStyle;rounded=0;orthogonalLoop=1;jettySize=auto;html=1;entryX=0.5;entryY=0;entryDx=0;entryDy=0;" parent="1" source="LJVpLXXxZJYMMhg_Cfb--55" target="LJVpLXXxZJYMMhg_Cfb--29" edge="1">
                    <mxGeometry relative="1" as="geometry"/>
                </mxCell>
                <mxCell id="LJVpLXXxZJYMMhg_Cfb--55" value="Supprimer un congé payé&amp;nbsp;" style="ellipse;whiteSpace=wrap;html=1;" parent="1" vertex="1">
                    <mxGeometry x="330" width="120" height="80" as="geometry"/>
                </mxCell>
                <mxCell id="LJVpLXXxZJYMMhg_Cfb--60" style="edgeStyle=orthogonalEdgeStyle;rounded=0;orthogonalLoop=1;jettySize=auto;html=1;entryX=0.5;entryY=1;entryDx=0;entryDy=0;" parent="1" source="LJVpLXXxZJYMMhg_Cfb--56" target="LJVpLXXxZJYMMhg_Cfb--29" edge="1">
                    <mxGeometry relative="1" as="geometry"/>
                </mxCell>
                <mxCell id="LJVpLXXxZJYMMhg_Cfb--56" value="Supprimer&amp;nbsp;un congé sans solde" style="ellipse;whiteSpace=wrap;html=1;" parent="1" vertex="1">
                    <mxGeometry x="330" y="120" width="120" height="80" as="geometry"/>
                </mxCell>
                <mxCell id="LJVpLXXxZJYMMhg_Cfb--58" style="edgeStyle=orthogonalEdgeStyle;rounded=0;orthogonalLoop=1;jettySize=auto;html=1;entryX=1;entryY=0.5;entryDx=0;entryDy=0;" parent="1" source="LJVpLXXxZJYMMhg_Cfb--57" target="LJVpLXXxZJYMMhg_Cfb--29" edge="1">
                    <mxGeometry relative="1" as="geometry"/>
                </mxCell>
                <mxCell id="LJVpLXXxZJYMMhg_Cfb--57" value="Supprimer&amp;nbsp;une RTT employé" style="ellipse;whiteSpace=wrap;html=1;" parent="1" vertex="1">
                    <mxGeometry x="210" y="60" width="120" height="80" as="geometry"/>
                </mxCell>
                <mxCell id="LJVpLXXxZJYMMhg_Cfb--95" style="edgeStyle=orthogonalEdgeStyle;rounded=0;orthogonalLoop=1;jettySize=auto;html=1;endArrow=classic;endFill=1;" parent="1" source="LJVpLXXxZJYMMhg_Cfb--64" edge="1">
                    <mxGeometry relative="1" as="geometry">
                        <Array as="points">
                            <mxPoint x="-580" y="1320"/>
                            <mxPoint x="-580" y="109"/>
                        </Array>
                        <mxPoint x="-510" y="110" as="targetPoint"/>
                    </mxGeometry>
                </mxCell>
                <mxCell id="LJVpLXXxZJYMMhg_Cfb--96" style="edgeStyle=orthogonalEdgeStyle;rounded=0;orthogonalLoop=1;jettySize=auto;html=1;endArrow=none;endFill=0;" parent="1" source="LJVpLXXxZJYMMhg_Cfb--64" target="8pvRKTHRMorsvpUGDSfb-13" edge="1">
                    <mxGeometry relative="1" as="geometry">
                        <Array as="points">
                            <mxPoint x="-410" y="1320"/>
                            <mxPoint x="-410" y="1130"/>
                        </Array>
                    </mxGeometry>
                </mxCell>
                <mxCell id="LJVpLXXxZJYMMhg_Cfb--64" value="Admin" style="shape=umlActor;verticalLabelPosition=bottom;verticalAlign=top;html=1;" parent="1" vertex="1">
                    <mxGeometry x="-510" y="1290" width="30" height="60" as="geometry"/>
                </mxCell>
                <mxCell id="LJVpLXXxZJYMMhg_Cfb--66" value="Modifier une absence de groupe" style="ellipse;whiteSpace=wrap;html=1;" parent="1" vertex="1">
                    <mxGeometry x="-36" y="1280" width="120" height="80" as="geometry"/>
                </mxCell>
                <mxCell id="LJVpLXXxZJYMMhg_Cfb--67" style="edgeStyle=orthogonalEdgeStyle;rounded=0;orthogonalLoop=1;jettySize=auto;html=1;" parent="1" source="LJVpLXXxZJYMMhg_Cfb--68" target="LJVpLXXxZJYMMhg_Cfb--66" edge="1">
                    <mxGeometry relative="1" as="geometry"/>
                </mxCell>
                <mxCell id="LJVpLXXxZJYMMhg_Cfb--68" value="Modifier&amp;nbsp;un jour férié" style="ellipse;whiteSpace=wrap;html=1;" parent="1" vertex="1">
                    <mxGeometry x="294" y="1330" width="120" height="80" as="geometry"/>
                </mxCell>
                <mxCell id="LJVpLXXxZJYMMhg_Cfb--69" style="edgeStyle=orthogonalEdgeStyle;rounded=0;orthogonalLoop=1;jettySize=auto;html=1;" parent="1" source="LJVpLXXxZJYMMhg_Cfb--70" target="LJVpLXXxZJYMMhg_Cfb--66" edge="1">
                    <mxGeometry relative="1" as="geometry"/>
                </mxCell>
                <mxCell id="LJVpLXXxZJYMMhg_Cfb--70" value="Modifier une RTT employeur" style="ellipse;whiteSpace=wrap;html=1;" parent="1" vertex="1">
                    <mxGeometry x="294" y="1240" width="120" height="80" as="geometry"/>
                </mxCell>
                <mxCell id="LJVpLXXxZJYMMhg_Cfb--71" value="Supprimer une absence de groupe" style="ellipse;whiteSpace=wrap;html=1;" parent="1" vertex="1">
                    <mxGeometry x="-36" y="1480" width="120" height="80" as="geometry"/>
                </mxCell>
                <mxCell id="LJVpLXXxZJYMMhg_Cfb--72" style="edgeStyle=orthogonalEdgeStyle;rounded=0;orthogonalLoop=1;jettySize=auto;html=1;" parent="1" source="LJVpLXXxZJYMMhg_Cfb--73" target="LJVpLXXxZJYMMhg_Cfb--71" edge="1">
                    <mxGeometry relative="1" as="geometry"/>
                </mxCell>
                <mxCell id="LJVpLXXxZJYMMhg_Cfb--73" value="Supprimer&amp;nbsp;un jour férié" style="ellipse;whiteSpace=wrap;html=1;" parent="1" vertex="1">
                    <mxGeometry x="294" y="1530" width="120" height="80" as="geometry"/>
                </mxCell>
                <mxCell id="LJVpLXXxZJYMMhg_Cfb--74" style="edgeStyle=orthogonalEdgeStyle;rounded=0;orthogonalLoop=1;jettySize=auto;html=1;" parent="1" source="LJVpLXXxZJYMMhg_Cfb--75" target="LJVpLXXxZJYMMhg_Cfb--71" edge="1">
                    <mxGeometry relative="1" as="geometry"/>
                </mxCell>
                <mxCell id="LJVpLXXxZJYMMhg_Cfb--75" value="Supprimer&amp;nbsp;une RTT employeur" style="ellipse;whiteSpace=wrap;html=1;" parent="1" vertex="1">
                    <mxGeometry x="294" y="1440" width="120" height="80" as="geometry"/>
                </mxCell>
                <mxCell id="LJVpLXXxZJYMMhg_Cfb--87" value="Traitement de nuit" style="ellipse;whiteSpace=wrap;html=1;" parent="1" vertex="1">
                    <mxGeometry x="500" y="710" width="120" height="80" as="geometry"/>
                </mxCell>
                <mxCell id="PXRyv2mjXlSzl0FKW3IO-1" value="Visualiser le rapport :&amp;nbsp;&lt;div&gt;Vue par&amp;nbsp;&lt;/div&gt;&lt;div&gt;département et par jour&lt;/div&gt;" style="ellipse;whiteSpace=wrap;html=1;" parent="1" vertex="1">
                    <mxGeometry x="-200" y="815" width="150" height="80" as="geometry"/>
                </mxCell>
                <mxCell id="PXRyv2mjXlSzl0FKW3IO-2" value="Visualiser le rapport : Histogramme par département et par jour" style="ellipse;whiteSpace=wrap;html=1;" parent="1" vertex="1">
                    <mxGeometry x="-200" y="925" width="150" height="80" as="geometry"/>
                </mxCell>
                <mxCell id="XsrwPxP6KcTPyjz2luoI-11" style="edgeStyle=orthogonalEdgeStyle;rounded=0;orthogonalLoop=1;jettySize=auto;html=1;entryX=1;entryY=0.5;entryDx=0;entryDy=0;endArrow=none;endFill=0;" parent="1" source="XsrwPxP6KcTPyjz2luoI-8" target="LJVpLXXxZJYMMhg_Cfb--87" edge="1">
                    <mxGeometry relative="1" as="geometry"/>
                </mxCell>
                <mxCell id="XsrwPxP6KcTPyjz2luoI-8" value="&amp;lt;&amp;lt;System&amp;gt;&amp;gt;" style="shape=umlActor;verticalLabelPosition=bottom;verticalAlign=top;html=1;" parent="1" vertex="1">
                    <mxGeometry x="820" y="720" width="30" height="60" as="geometry"/>
                </mxCell>
                <mxCell id="XsrwPxP6KcTPyjz2luoI-24" value="" style="endArrow=openThin;html=1;rounded=0;exitX=0;exitY=0.5;exitDx=0;exitDy=0;dashed=1;endFill=0;" parent="1" source="LJVpLXXxZJYMMhg_Cfb--29" target="8pvRKTHRMorsvpUGDSfb-39" edge="1">
                    <mxGeometry width="50" height="50" relative="1" as="geometry">
                        <mxPoint x="328" y="-92" as="sourcePoint"/>
                        <mxPoint x="-90" y="60" as="targetPoint"/>
                    </mxGeometry>
                </mxCell>
                <mxCell id="6" value="&amp;lt;&amp;lt;extends&amp;gt;&amp;gt;" style="edgeLabel;html=1;align=center;verticalAlign=middle;resizable=0;points=[];" vertex="1" connectable="0" parent="XsrwPxP6KcTPyjz2luoI-24">
                    <mxGeometry x="0.2023" relative="1" as="geometry">
                        <mxPoint x="8" y="-4" as="offset"/>
                    </mxGeometry>
                </mxCell>
                <mxCell id="7" style="edgeStyle=none;html=1;dashed=1;endArrow=none;endFill=0;" edge="1" parent="1" source="fiSyXDyWtsFJAWwOct7Y-1" target="PXRyv2mjXlSzl0FKW3IO-1">
                    <mxGeometry relative="1" as="geometry"/>
                </mxCell>
                <mxCell id="8" value="&amp;lt;&amp;lt;extends&amp;gt;&amp;gt;" style="edgeLabel;html=1;align=center;verticalAlign=middle;resizable=0;points=[];" vertex="1" connectable="0" parent="7">
                    <mxGeometry x="0.1373" y="-1" relative="1" as="geometry">
                        <mxPoint as="offset"/>
                    </mxGeometry>
                </mxCell>
                <mxCell id="fiSyXDyWtsFJAWwOct7Y-1" value="Exporter le rapport :&amp;nbsp;&lt;div&gt;Vue par&amp;nbsp;&lt;/div&gt;&lt;div&gt;département et par jour&lt;/div&gt;" style="ellipse;whiteSpace=wrap;html=1;" parent="1" vertex="1">
                    <mxGeometry x="80" y="815" width="150" height="80" as="geometry"/>
                </mxCell>
                <mxCell id="2" value="Authentifier salarié" style="ellipse;whiteSpace=wrap;html=1;" vertex="1" parent="1">
                    <mxGeometry x="-230" y="-240" width="120" height="80" as="geometry"/>
                </mxCell>
                <mxCell id="4" style="edgeStyle=none;html=1;exitX=0.5;exitY=0.5;exitDx=0;exitDy=0;exitPerimeter=0;" edge="1" parent="1" source="3" target="2">
                    <mxGeometry relative="1" as="geometry">
                        <mxPoint x="-600.0000000000002" y="-100" as="targetPoint"/>
                    </mxGeometry>
                </mxCell>
                <mxCell id="3" value="Utilisateur&amp;nbsp;&lt;br&gt;Authentifié" style="shape=umlActor;verticalLabelPosition=bottom;verticalAlign=top;html=1;outlineConnect=0;" vertex="1" parent="1">
                    <mxGeometry x="-510" y="-230" width="30" height="60" as="geometry"/>
                </mxCell>
                <mxCell id="19" style="edgeStyle=none;html=1;endArrow=none;endFill=0;" edge="1" parent="1" source="9">
                    <mxGeometry relative="1" as="geometry">
                        <mxPoint x="-470" y="1320" as="targetPoint"/>
                    </mxGeometry>
                </mxCell>
                <mxCell id="9" value="Visualiser les absences" style="ellipse;whiteSpace=wrap;html=1;" vertex="1" parent="1">
                    <mxGeometry x="-246" y="1280" width="120" height="80" as="geometry"/>
                </mxCell>
                <mxCell id="10" style="edgeStyle=orthogonalEdgeStyle;rounded=0;orthogonalLoop=1;jettySize=auto;html=1;dashed=1;endArrow=none;endFill=0;" edge="1" parent="1" source="9" target="LJVpLXXxZJYMMhg_Cfb--66">
                    <mxGeometry relative="1" as="geometry">
                        <mxPoint x="1162.4264068712168" y="-1.7157287525219544" as="sourcePoint"/>
                        <mxPoint x="-100" y="1330" as="targetPoint"/>
                    </mxGeometry>
                </mxCell>
                <mxCell id="11" value="&amp;lt;&amp;lt;extend&amp;gt;&amp;gt;" style="edgeLabel;html=1;align=center;verticalAlign=middle;resizable=0;points=[];" vertex="1" connectable="0" parent="10">
                    <mxGeometry x="0.0418" y="1" relative="1" as="geometry">
                        <mxPoint as="offset"/>
                    </mxGeometry>
                </mxCell>
                <mxCell id="13" style="edgeStyle=orthogonalEdgeStyle;rounded=0;orthogonalLoop=1;jettySize=auto;html=1;endArrow=none;endFill=0;dashed=1;" edge="1" parent="1" source="LJVpLXXxZJYMMhg_Cfb--71" target="9">
                    <mxGeometry relative="1" as="geometry">
                        <mxPoint x="-260" y="1470" as="sourcePoint"/>
                        <mxPoint x="1162.4264068712168" y="-201.71572875252195" as="targetPoint"/>
                        <Array as="points">
                            <mxPoint x="-186" y="1530"/>
                        </Array>
                    </mxGeometry>
                </mxCell>
                <mxCell id="14" value="&amp;lt;&amp;lt;extend&amp;gt;&amp;gt;" style="edgeLabel;html=1;align=center;verticalAlign=middle;resizable=0;points=[];" vertex="1" connectable="0" parent="13">
                    <mxGeometry x="0.0139" y="-1" relative="1" as="geometry">
                        <mxPoint as="offset"/>
                    </mxGeometry>
                </mxCell>
            </root>
        </mxGraphModel>
    </diagram>
</mxfile>